<svg xmlns="http://www.w3.org/2000/svg" viewBox="0 0 135.88 129.89"><defs><style>.cls-1{fill:#29abe2;}</style></defs><title>OvenwandLogo</title><g id="Outline_color_" data-name="Outline (color)"><g id="Face"><path class="cls-1" d="M68,69.89c17.09,0,31,11.67,31,26s-13.91,26-31,26-31-11.66-31-26,13.9-26,31-26m0-8c-21.54,0-39,15.22-39,34s17.46,34,39,34,39-15.22,39-34-17.46-34-39-34Z"/></g><path id="Crown" class="cls-1" d="M25,39.47,36.36,57.38h0l2.33,3.67h5.47A45.72,45.72,0,0,1,68,54.75a45.68,45.68,0,0,1,23.8,6.31h5.42l2.36-3.72h0l17-26.79L135.88,0,105.34,19.35,85.4,32l-.61-1.09L68,.74,51.14,30.89,50.52,32l-20-12.66L0,0,19.35,30.54,24.05,38h0Zm54.54-5.65L90.62,53.65A53.23,53.23,0,0,0,68,48.75a53.2,53.2,0,0,0-22.65,4.9L56.38,33.82,68,13.06Zm29-9.4,7.94-5-5,7.94-15.24,24L88.33,37.23Zm-81.22,0L47.59,37.26l-7.9,14.16L24.42,27.33l-5-7.94Z"/></g></svg>